<svg width="22" height="24" viewBox="0 0 22 24" fill="none" xmlns="http://www.w3.org/2000/svg">
<g clip-path="url(#clip0_9_241)">
<path d="M18.7226 4.60999C18.2637 4.099 17.7189 3.69364 17.1193 3.41708C16.5196 3.14052 15.8769 2.99817 15.2278 2.99817C14.5787 2.99817 13.936 3.14052 13.3364 3.41708C12.7367 3.69364 12.1919 4.099 11.7331 4.60999L10.7808 5.66999L9.82845 4.60999C8.90158 3.5783 7.64448 2.9987 6.33369 2.9987C5.0229 2.9987 3.7658 3.5783 2.83893 4.60999C1.91207 5.64169 1.39136 7.04096 1.39136 8.49999C1.39136 9.95903 1.91207 11.3583 2.83893 12.39L10.7808 21.23L18.7226 12.39C19.1816 11.8792 19.5458 11.2728 19.7943 10.6053C20.0427 9.93789 20.1706 9.22248 20.1706 8.49999C20.1706 7.77751 20.0427 7.0621 19.7943 6.39464C19.5458 5.72718 19.1816 5.12075 18.7226 4.60999Z" stroke="#90CAF9" stroke-width="2" stroke-linecap="round" stroke-linejoin="round"/>
</g>
<defs>
<clipPath id="clip0_9_241">
<rect width="21.5615" height="24" fill="white"/>
</clipPath>
</defs>
</svg>
