<svg width="21" height="21" viewBox="0 0 21 21" fill="none" xmlns="http://www.w3.org/2000/svg">
<path d="M18.3312 2.61183C17.8724 2.10083 17.3275 1.69547 16.7279 1.41891C16.1283 1.14235 15.4855 1 14.8365 1C14.1874 1 13.5447 1.14235 12.945 1.41891C12.3454 1.69547 11.8006 2.10083 11.3417 2.61183L10.3894 3.67183L9.43709 2.61183C8.51023 1.58013 7.25312 1.00053 5.94234 1.00053C4.63155 1.00053 3.37444 1.58013 2.44758 2.61183C1.52071 3.64352 1 5.04279 1 6.50183C1 7.96086 1.52071 9.36013 2.44758 10.3918L10.3894 19.2318L18.3312 10.3918C18.7903 9.88107 19.1545 9.27464 19.4029 8.60718C19.6514 7.93972 19.7793 7.22431 19.7793 6.50183C19.7793 5.77934 19.6514 5.06393 19.4029 4.39647C19.1545 3.72901 18.7903 3.12258 18.3312 2.61183Z" fill="#90CAF9" stroke="#008DFF" stroke-width="2" stroke-linecap="round" stroke-linejoin="round"/>
</svg>
