<svg width="40" height="40" viewBox="0 0 40 40" fill="none" xmlns="http://www.w3.org/2000/svg">
<circle cx="20" cy="20" r="20" fill="#ECF4FB"/>
<g filter="url(#filter0_d_3_5056)">
<path d="M20 22.5C18.9583 22.5 18.0729 22.1354 17.3438 21.4062C16.6146 20.6771 16.25 19.7917 16.25 18.75V11.25C16.25 10.2083 16.6146 9.32292 17.3438 8.59375C18.0729 7.86458 18.9583 7.5 20 7.5C21.0417 7.5 21.9271 7.86458 22.6562 8.59375C23.3854 9.32292 23.75 10.2083 23.75 11.25V18.75C23.75 19.7917 23.3854 20.6771 22.6562 21.4062C21.9271 22.1354 21.0417 22.5 20 22.5ZM18.75 31.25V27.4063C16.5833 27.1146 14.7917 26.1458 13.375 24.5C11.9583 22.8542 11.25 20.9375 11.25 18.75H13.75C13.75 20.4792 14.3594 21.9531 15.5781 23.1719C16.7969 24.3906 18.2708 25 20 25C21.7292 25 23.2031 24.3906 24.4219 23.1719C25.6406 21.9531 26.25 20.4792 26.25 18.75H28.75C28.75 20.9375 28.0417 22.8542 26.625 24.5C25.2083 26.1458 23.4167 27.1146 21.25 27.4063V31.25H18.75Z" fill="#004B88"/>
</g>
<defs>
<filter id="filter0_d_3_5056" x="4.9" y="4.9" width="34.2" height="34.2" filterUnits="userSpaceOnUse" color-interpolation-filters="sRGB">
<feFlood flood-opacity="0" result="BackgroundImageFix"/>
<feColorMatrix in="SourceAlpha" type="matrix" values="0 0 0 0 0 0 0 0 0 0 0 0 0 0 0 0 0 0 127 0" result="hardAlpha"/>
<feOffset dx="2" dy="2"/>
<feGaussianBlur stdDeviation="1.05"/>
<feComposite in2="hardAlpha" operator="out"/>
<feColorMatrix type="matrix" values="0 0 0 0 0 0 0 0 0 0 0 0 0 0 0 0 0 0 0.25 0"/>
<feBlend mode="normal" in2="BackgroundImageFix" result="effect1_dropShadow_3_5056"/>
<feBlend mode="normal" in="SourceGraphic" in2="effect1_dropShadow_3_5056" result="shape"/>
</filter>
</defs>
</svg>
