<svg width="23" height="24" viewBox="0 0 23 24" fill="none" xmlns="http://www.w3.org/2000/svg">
<g clip-path="url(#clip0_9_245)">
<path d="M21.3347 6.42C21.2222 5.94541 20.9932 5.51057 20.6708 5.15941C20.3484 4.80824 19.944 4.55318 19.4984 4.42C17.8704 4 11.3583 4 11.3583 4C11.3583 4 4.8462 4 3.21818 4.46C2.7726 4.59318 2.36818 4.84824 2.04577 5.19941C1.72335 5.55057 1.49436 5.98541 1.38193 6.46C1.08397 8.20556 0.93823 9.97631 0.946525 11.75C0.935904 13.537 1.08166 15.3213 1.38193 17.08C1.50588 17.5398 1.74 17.9581 2.06167 18.2945C2.38333 18.6308 2.78167 18.8738 3.21818 19C4.8462 19.46 11.3583 19.46 11.3583 19.46C11.3583 19.46 17.8704 19.46 19.4984 19C19.944 18.8668 20.3484 18.6118 20.6708 18.2606C20.9932 17.9094 21.2222 17.4746 21.3347 17C21.6303 15.2676 21.776 13.5103 21.7701 11.75C21.7807 9.96295 21.6349 8.1787 21.3347 6.42Z" stroke="white" stroke-width="2" stroke-linecap="round" stroke-linejoin="round"/>
<path d="M9.22861 15.02L14.6711 11.75L9.22861 8.48V15.02Z" stroke="white" stroke-width="2" stroke-linecap="round" stroke-linejoin="round"/>
</g>
<defs>
<clipPath id="clip0_9_245">
<rect width="22.7166" height="24" fill="white"/>
</clipPath>
</defs>
</svg>
